<?xml version="1.0" encoding="UTF-8"?>
<svg width="16px" height="64px" viewBox="0 0 16 64" version="1.1" xmlns="http://www.w3.org/2000/svg" xmlns:xlink="http://www.w3.org/1999/xlink">
    <title>character/male-body/claf</title>
    <g id="character/male-body/claf" stroke="none" stroke-width="1" fill="none" fill-rule="evenodd">
        <polygon id="Path-2" fill="#9B9B9E" opacity="0.699999988" points="1 12.5 2 62 3 64 6 64 7 62 8 52 10 39 15 29 14 16 10 6 9 1 4 1.18844358e-14 1 4 -5.62185998e-18 9"></polygon>
        <circle id="Oval" fill="#2D2D35" cx="5" cy="5" r="1"></circle>
        <path d="M5,61 C5.55228475,61 6,60.5522847 6,60 C6,59.4477153 5.55228475,59 5,59 C4.44771525,59 4,59.4477153 4,60 C4,60.5522847 4.44771525,61 5,61 Z" id="Oval-Copy" fill="#2D2D35"></path>
        <line x1="5" y1="5" x2="5" y2="60" id="Path-19" stroke="#2D2D35" stroke-width="0.5" stroke-linejoin="round" stroke-dasharray="2,2"></line>
    </g>
</svg>