<?xml version="1.0" encoding="UTF-8"?>
<svg width="75px" height="90px" viewBox="0 0 75 90" version="1.1" xmlns="http://www.w3.org/2000/svg" xmlns:xlink="http://www.w3.org/1999/xlink">
    <title>character/male-skin/Lipperhey/abdomen</title>
    <defs>
        <polygon id="path-1" points="11 3 7.5 11 4.5 21.5 1 35 1.11430309e-12 44 2.04808392e-13 46 16 47 22 46 31 46 41 44 44 44 47 43 47 41 44 18 40 8 35 2 26 -1.65352365e-17"></polygon>
    </defs>
    <g id="character/male-skin/Lipperhey/abdomen" stroke="none" stroke-width="1" fill="none" fill-rule="evenodd">
        <g id="腰部衣服" transform="translate(14.000000, 36.000000)">
            <g id="Path-16" transform="translate(0.000000, 4.000000)">
                <mask id="mask-2" fill="white">
                    <use xlink:href="#path-1"></use>
                </mask>
                <use id="Mask" fill="#FADFA4" xlink:href="#path-1"></use>
                <polygon fill="#E7D1A6" opacity="0.800000012" mask="url(#mask-2)" points="13 1 16 2 14 6 11 13 7 31 6 39 6 41 12 42 26 41 38 39 43 39 51 37 52 47 1.1379786e-15 56 -11 48 -2 12"></polygon>
            </g>
            <g id="Group" transform="translate(9.000000, 0.000000)">
                <polygon id="Path-14" fill="#EDEDED" points="1 1 0 3 1 5 0.5 6.5 2 8 6 7 13.5 7 19.5 6 25 6.5 26.5 6 27.5 5 26.5 3 27 1.5 26 5.55111512e-17 19.5 0.5 11.5 0"></polygon>
                <polygon id="Path-12" fill-opacity="0.16" fill="#2D2D35" points="5 5 8 3.5 12.5 2.5 16 2.5 18 2 22 2.5 24 2 22.5 3 18.5 3 16 3.5 13 3.5 10.5 4.5 9 4.5 7 5 4.5 5.5"></polygon>
            </g>
        </g>
    </g>
</svg>