<?xml version="1.0" encoding="UTF-8"?>
<svg width="55px" height="83px" viewBox="0 0 55 83" version="1.1" xmlns="http://www.w3.org/2000/svg" xmlns:xlink="http://www.w3.org/1999/xlink">
    <title>character/male-skin/Lipperhey/brachial-inner</title>
    <g id="character/male-skin/Lipperhey/brachial-inner" stroke="none" stroke-width="1" fill="none" fill-rule="evenodd">
        <g id="Man/Brachial" transform="translate(20.000000, 20.000000)" opacity="0.5">
            <polygon fill-opacity="0.4" fill="#2D2D35" points="3.72893346e-18 10 1.56806755e-14 7 3 3 7 0 12 1 15 5 14 13 15 25 14 38 13 41 12 42 10 43 8 42 5 35 3 26 2 17"></polygon>
            <circle id="Oval" fill="#2D2D35" cx="8" cy="5" r="1"></circle>
            <circle id="Oval-Copy" fill="#2D2D35" cx="11" cy="40" r="1"></circle>
            <line x1="8" y1="5" x2="11" y2="40" id="Path-22" stroke="#2D2D35" stroke-width="0.5" stroke-linejoin="round" stroke-dasharray="2,2"></line>
        </g>
        <g id="上臂衣服-outer" transform="translate(19.000000, 19.000000)">
            <polygon id="Path-29" fill="#C4B294" points="8 1 4 4 1 8 1 11 2 14.5 1.5 14 0.5 11.5 6.9388939e-18 9 0.5 7 3.5 3 7 9.25648447e-15 9 0 12 1 13 2 16 6 16 11.5 15 14 15.5 11 15 6.5 12.5 2.5 10.5 1.5"></polygon>
            <polygon id="Path-21" fill="#EBE2C9" points="1 8 1 11 2 14.5 2 17.5 3 21.5 3 26.5 4 30 5 34.5 6 37 7.5 41.5 9 44 11 44 14 42.5 15.5 39 16 26 15 14 15.5 10.5 15 6.5 12.5 2.5 10.5 1.5 8 1 4 4"></polygon>
            <polygon id="Path-24" fill="#FFFFFF" opacity="0.646763393" points="8 3 8.5 6.5 9.5 11 10 15 9.5 20 11 26 10.5 31 11.5 35.5 11.5 31 12.5 26 11.5 19.5 12 14 11.5 10 10.5 6.5"></polygon>
            <polygon id="Path-31" fill="#FFFFFF" opacity="0.646763393" points="4.5 7 4.5 10.5 6 14 6 17 7.5 22 7.5 27.5 8.5 31 8.5 33 9.5 35 8 33.5 7.5 30.5 6 28 6 22 5 17.5 5 14 3 11 3 8.5 4 6"></polygon>
        </g>
    </g>
</svg>