<?xml version="1.0" encoding="UTF-8"?>
<svg width="85px" height="85px" viewBox="0 0 85 85" version="1.1" xmlns="http://www.w3.org/2000/svg" xmlns:xlink="http://www.w3.org/1999/xlink">
    <title>character/male-skin/Lipperhey/breasts</title>
    <defs>
        <polygon id="path-1" points="1.5 8.5 0 16.5 1 30 3 35 15.5 35 27 34 30 28 33 16.5 32 9.5 29 3.5 28 2.5 23 1.22765046e-16 11 2 6 7"></polygon>
    </defs>
    <g id="character/male-skin/Lipperhey/breasts" stroke="none" stroke-width="1" fill="none" fill-rule="evenodd">
        <g id="胸口衣服" transform="translate(26.000000, 16.000000)">
            <g id="Path-4" transform="translate(0.000000, 6.500000)">
                <mask id="mask-2" fill="white">
                    <use xlink:href="#path-1"></use>
                </mask>
                <use id="Mask" fill="#FADFA4" xlink:href="#path-1"></use>
                <polygon fill="#E7D1A6" opacity="0.800000012" mask="url(#mask-2)" points="6 9 4.5 14.5 4.5 20 6.5 31 0.5 31.5 -4 13.5 -1 8 7 6.5"></polygon>
            </g>
            <polygon id="Path-13" fill="#CCC08F" points="7 8 3.5 11 1.5 13.5 1 15 7 16 12.5 14 18.5 9.5 22 8 25 8 27.5 9.5 29 8 24 3"></polygon>
            <polygon id="Path-11" fill="#79797E" points="7 8 12 8 17 7 22 5 24 3 22.5 1.5 22 0 17.5 1 13 3 8 4 8 5"></polygon>
            <polygon id="Path-3" fill="#79797E" points="1 15 7 16 12.5 14 18.5 9.5 22 8 25 8 27.5 9.5 29 8 27.5 8 24.5 6.5 20.5 7 15.5 10 11 13.5 6.5 14.5 1.5 13.5"></polygon>
            <g id="腰带" transform="translate(0.000000, 30.000000)">
                <polygon id="Path" fill="#EDEDED" points="0.5 1 0 2 0 3 0.5 4.5 0 6 0.5 7.5 1.5 8.5 1.5 10 2 11.5 5.5 12.5 13.5 12 20 12 26.5 11 27.5 11 28.5 10 28.5 9 29.5 7.5 30 5.5 31.5 3 31 1 26.5 1 19 1.5 13.5 5.12874767e-18 6.5 0.5"></polygon>
                <polygon id="Path-2" fill-opacity="0.16" fill="#2D2D35" points="1 5.5 7 5 13 5.5 17 5.5 22.5 6.5 29 5.5 29.5 6 29.5 5 27.5 5 22.5 5.5 17 4 13 4.5 8 4 4 4"></polygon>
                <polygon id="Path-6" fill-opacity="0.16" fill="#2D2D35" points="2 10 6.5 9 11 9 14.5 8.5 19 9 25 9 26.5 10 25 10 21 10 15.5 9 12 10 8 9.5 5 10"></polygon>
            </g>
        </g>
    </g>
</svg>