<?xml version="1.0" encoding="UTF-8"?>
<svg width="40px" height="80px" viewBox="0 0 40 80" version="1.1" xmlns="http://www.w3.org/2000/svg" xmlns:xlink="http://www.w3.org/1999/xlink">
    <title>character/male-skin/Lipperhey/claf-outer</title>
    <g id="character/male-skin/Lipperhey/claf-outer" stroke="none" stroke-width="1" fill="none" fill-rule="evenodd">
        <g id="小托衣服-outer" transform="translate(9.000000, 7.500000)">
            <polygon id="Path-26" fill="#EEE8E8" points="3 9 3 11 3.5 12 4 12.5 5 62 6 64 9 64 10 62 11 52 13 39 18 29 17 16 15 11 15.5 9.5 15 8.5 15 7.5 14 6 13 4 12 1 7 -5.02794455e-17 4 4"></polygon>
            <polygon id="Path-19" fill="#C9A178" points="4.5 47 4 50 4.5 52 4 55 4.5 59 5 62 6 64 9 64 10 62 10.5 59 11 56 11 55 11.5 53 11.5 52 12 50 12 47"></polygon>
            <polygon id="Mask" fill="#D5B595" points="4 25 10 25 15 25.5 18 25 21 26 22.5 26.5 23 28 22 29 19 30 17 33 14 39 13.5 43 13.5 45 13 47 13 48.5 8.5 49 5 48.5 3.5 47 4 45 3.5 43 4 38 3.5 33 2 29 -1.4736889e-16 26 1 24.5 2.5 24.5"></polygon>
        </g>
    </g>
</svg>