<?xml version="1.0" encoding="UTF-8"?>
<svg width="51px" height="78px" viewBox="0 0 51 78" version="1.1" xmlns="http://www.w3.org/2000/svg" xmlns:xlink="http://www.w3.org/1999/xlink">
    <title>character/male-skin/Lipperhey/forearm-inner</title>
    <defs>
        <polygon id="path-1" points="1 2 3 2 5 3 7 3 10 4 13 4 14 3 13 2 10 2 7 1 5 1 3 5.55111512e-17 1 0 4.91060184e-17 1"></polygon>
    </defs>
    <g id="character/male-skin/Lipperhey/forearm-inner" stroke="none" stroke-width="1" fill="none" fill-rule="evenodd">
        <g id="Man/Forearm" transform="translate(20.000000, 21.000000)" opacity="0.5">
            <polygon fill-opacity="0.4" fill="#2D2D35" points="7 1 8 -9.63821259e-15 9 -9.49240686e-15 11 1 11 4 10 9 6 27 3 35 2 37 1 37 2.22044605e-17 36 1 22 3 11 4 7 6 2"></polygon>
            <circle id="Oval-Copy-2" fill="#2D2D35" cx="8" cy="3" r="1"></circle>
            <circle id="Oval-Copy-3" fill="#2D2D35" cx="1" cy="36" r="1"></circle>
            <line x1="8" y1="3" x2="1" y2="36" id="Path-23" stroke="#2D2D35" stroke-width="0.5" stroke-linejoin="round" stroke-dasharray="2,2"></line>
        </g>
        <g id="小臂衣服-outer" transform="translate(16.000000, 21.000000)">
            <polygon id="Path-30" fill="#EBE2C9" points="12 0 10 1 8 6 7 10 5 21 4 33 8 33 10 27 12.5 16.5 14 9 15 4 15 1 13 0"></polygon>
            <polygon id="Path-22" fill="#AE966C" points="6 37 9 36 11 33.5 12.5 32 9.5 31.5 7 31 5 31 3 30 1 30 2 32 2 34 3 36 4 37"></polygon>
            <g id="Combined-Shape" transform="translate(0.000000, 28.000000)">
                <mask id="mask-2" fill="white">
                    <use xlink:href="#path-1"></use>
                </mask>
                <use id="Mask" fill="#57575D" xlink:href="#path-1"></use>
                <path d="M3,0 L1,4 L3,5 L5,-2 L4,-2 L3,0 Z M7,-1 L6,6 L8,6 L9,0 L7,-1 Z M11,0 L10,5 L12,5 L12,0 L11,0 Z" fill="#FFF0A0" opacity="0.5" mask="url(#mask-2)"></path>
            </g>
            <polygon id="Path-32" fill="#FFFFFF" opacity="0.646763393" points="10 7 8.5 9.5 8.5 13.5 7.5 16 7.5 20 6 23.5 7 27.5 7 23.5 8.5 20 8 16.5 9.5 13 9.5 9.5"></polygon>
            <polygon id="Path-33" fill="#FFFFFF" opacity="0.646763393" points="12 8 12 11 10.5 12.5 10.5 15.5 9.5 17.5 9.5 22 8 24 8 26.5 8.5 24.5 10.5 22 10.5 18 11.5 15 11.5 12.5 13 10.5 12.5 8 13 6"></polygon>
        </g>
    </g>
</svg>