<?xml version="1.0" encoding="UTF-8"?>
<svg width="105px" height="105px" viewBox="0 0 105 105" version="1.1" xmlns="http://www.w3.org/2000/svg" xmlns:xlink="http://www.w3.org/1999/xlink">
    <title>character/male-skin/Lipperhey/head</title>
    <g id="character/male-skin/Lipperhey/head" stroke="none" stroke-width="1" fill="none" fill-rule="evenodd">
        <polygon id="Path-13-Copy" fill="#F0DAB7" points="47.3998629 41.5603875 44 45 43 49 40 57 43 57 43 63 43 65 46 65 54 63 55 60 60 59 64 54 65 48 63 44 60 41 54 40"></polygon>
        <path d="M43,60 L44.5,60.5 L46,61.5 L47,60.5 L48,61.5 L48,64.5 L46,66 L43,66.5 L41,66 L42,65 L42,62 L43,60 Z M45,57 L48,58.5 L49,58 L49,59 L47,60 L45,59 L43,59 L42,58 L43,57 L45,57 Z M57.5,39.5 L59.5,40.5 L62,41 L63,43 L64.5,44.5 L65,47 L65.5,49 L65,51 L65,53 L64,54.5 L63,56.5 L61.5,57.5 L61.5,58 L61,59 L60,58.5 L59,57.5 L58.5,55 L57.5,54.5 L56,53.5 L56,52 L55,50.5 L53,51 L52.5,53 L52.5,54 L52,54.5 L51,53 L51,51 L50.5,49 L51.5,46.5 L51.5,44.5 L50.5,43.5 L48,43 L46,43 L47,41 L49,40 L51,40 L55,39.5 L57.5,39.5 Z M47,49 L49,50 L44,50 L44.5,49 L47,49 Z" id="Combined-Shape" fill="#BF8B3C"></path>
    </g>
</svg>