<?xml version="1.0" encoding="UTF-8"?>
<svg width="72px" height="99px" viewBox="0 0 72 99" version="1.1" xmlns="http://www.w3.org/2000/svg" xmlns:xlink="http://www.w3.org/1999/xlink">
    <title>character/male-skin/Lipperhey/thigh-outer</title>
    <g id="character/male-skin/Lipperhey/thigh-outer" stroke="none" stroke-width="1" fill="none" fill-rule="evenodd">
        <g id="大腿衣服-outer" transform="translate(18.701022, 12.500000)">
            <polygon id="Path-15" fill="#F0CB7A" points="14 -1.43773882e-14 5 5 2 13 -1.48029737e-16 21 1 33 3 42 4 46 5 47 6 50 8 52 8 55 10 57 10 60 12 61 12 63 13 64 21 63 27 61 27 60 26 59 27 56 26 54 28 51 28 48 30 44 30 40 31 33 31 26 31.2989783 20.5 32.2989783 14.5 29 5 23 2"></polygon>
            <polygon id="Path-25" fill="#BEB3A0" points="13 64 21 63 27 61 28 62 28 64 28.5 67 28 69 28 70 23 72 20 73 15 73 14 72 13 70 13 68 12 65"></polygon>
            <polygon id="Path-10" fill="#E7E0D9" points="21 65 19.5 66 20 68 21.5 68 22 66"></polygon>
            <polygon id="Path-17" fill="#E7E0D9" points="25 64 24 66 25.5 67 26 65.5 25.5 64.5"></polygon>
            <polygon id="Path-18" fill="#E7E0D9" points="14.5 66.5 14 68 14.5 69 15 69.5 16 68"></polygon>
        </g>
    </g>
</svg>